{
  "accessors": [
    {
      "bufferView": 2,
      "componentType": 5126,
      "count": 18590,
      "max": [
        2.7702291011810303,
        4.253745079040527,
        10.761449813842773
      ],
      "min": [
        -2.7702291011810303,
        -4.2537455558776855,
        -10.761449813842773
      ],
      "type": "VEC3"
    },
    {
      "bufferView": 2,
      "byteOffset": 223080,
      "componentType": 5126,
      "count": 18590,
      "max": [
        0.9999430179595947,
        0.9999580979347229,
        0.9985675811767578
      ],
      "min": [
        -0.9999440312385559,
        -0.9997817277908325,
        -0.9998898506164551
      ],
      "type": "VEC3"
    },
    {
      "bufferView": 3,
      "componentType": 5126,
      "count": 18590,
      "max": [
        0.9997807741165161,
        0.9997721314430237,
        0.9999077916145325,
        1.0
      ],
      "min": [
        -0.9990805387496948,
        -0.9995831847190857,
        -0.9999603629112244,
        -1.0
      ],
      "type": "VEC4"
    },
    {
      "bufferView": 1,
      "componentType": 5126,
      "count": 18590,
      "max": [
        0.9989436268806458,
        0.9949489831924438
      ],
      "min": [
        0.0009864041348919272,
        0.0010124357650056481
      ],
      "type": "VEC2"
    },
    {
      "bufferView": 0,
      "componentType": 5125,
      "count": 89964,
      "type": "SCALAR"
    }
  ],
  "asset": {
    "extras": {
      "author": "3dhdscan (https://sketchfab.com/3dhdscan)",
      "license": "CC-BY-4.0 (http://creativecommons.org/licenses/by/4.0/)",
      "source": "https://sketchfab.com/3d-models/wood-stick-02-0ab534c493e14f67bac01ee94f20e43f",
      "title": "Wood Stick 02"
    },
    "generator": "Sketchfab-12.67.0",
    "version": "2.0"
  },
  "bufferViews": [
    {
      "buffer": 0,
      "byteLength": 359856,
      "name": "floatBufferViews",
      "target": 34963
    },
    {
      "buffer": 0,
      "byteLength": 148720,
      "byteOffset": 359856,
      "byteStride": 8,
      "name": "floatBufferViews",
      "target": 34962
    },
    {
      "buffer": 0,
      "byteLength": 446160,
      "byteOffset": 508576,
      "byteStride": 12,
      "name": "floatBufferViews",
      "target": 34962
    },
    {
      "buffer": 0,
      "byteLength": 297440,
      "byteOffset": 954736,
      "byteStride": 16,
      "name": "floatBufferViews",
      "target": 34962
    }
  ],
  "buffers": [
    {
      "byteLength": 1252176,
      "uri": "scene.bin"
    }
  ],
  "images": [
    {
      "uri": "textures/wood_stick_02_baseColor.jpeg"
    },
    {
      "uri": "textures/wood_stick_02_metallicRoughness.png"
    },
    {
      "uri": "textures/wood_stick_02_normal.jpeg"
    }
  ],
  "materials": [
    {
      "doubleSided": true,
      "name": "wood_stick_02",
      "normalTexture": {
        "index": 2
      },
      "occlusionTexture": {
        "index": 1
      },
      "pbrMetallicRoughness": {
        "baseColorTexture": {
          "index": 0
        },
        "metallicFactor": 0.0,
        "metallicRoughnessTexture": {
          "index": 1
        },
        "roughnessFactor": 0.8824314024390244
      }
    }
  ],
  "meshes": [
    {
      "name": "wood_stick_02_wood_stick_02_0",
      "primitives": [
        {
          "attributes": {
            "NORMAL": 1,
            "POSITION": 0,
            "TANGENT": 2,
            "TEXCOORD_0": 3
          },
          "indices": 4,
          "material": 0,
          "mode": 4
        }
      ]
    }
  ],
  "nodes": [
    {
      "children": [
        1
      ],
      "matrix": [
        1.8661355919415752e-18,
        -0.008404327556490898,
        -5.146166645075686e-19,
        0.0,
        1.8661355919415752e-18,
        -5.146166645075686e-19,
        0.008404327556490898,
        0.0,
        -0.008404327556490898,
        -1.8661355919415756e-18,
        1.866135591941575e-18,
        0.0,
        -0.6978938579559326,
        -0.6978938579559317,
        -4.227746963500977,
        1.0
      ],
      "name": "Sketchfab_model"
    },
    {
      "children": [
        2
      ],
      "matrix": [
        1.0,
        0.0,
        0.0,
        0.0,
        0.0,
        -1.0,
        0.0,
        0.0,
        0.0,
        0.0,
        -1.0,
        0.0,
        0.0,
        0.0,
        0.0,
        1.0
      ],
      "name": "wood_stick_02.FBX"
    },
    {
      "children": [
        3
      ],
      "name": "RootNode"
    },
    {
      "children": [
        4
      ],
      "matrix": [
        1.0,
        0.0,
        0.0,
        0.0,
        0.0,
        1.0,
        0.0,
        0.0,
        0.0,
        0.0,
        1.0,
        0.0,
        0.012504339218139648,
        -2.11387300491333,
        0.7103519439697266,
        1.0
      ],
      "name": "wood_stick_02"
    },
    {
      "mesh": 0,
      "name": "wood_stick_02_wood_stick_02_0"
    }
  ],
  "samplers": [
    {
      "magFilter": 9729,
      "minFilter": 9987,
      "wrapS": 10497,
      "wrapT": 10497
    }
  ],
  "scene": 0,
  "scenes": [
    {
      "name": "Sketchfab_Scene",
      "nodes": [
        0
      ]
    }
  ],
  "textures": [
    {
      "sampler": 0,
      "source": 0
    },
    {
      "sampler": 0,
      "source": 1
    },
    {
      "sampler": 0,
      "source": 2
    }
  ]
}
